<svg width="341" height="99" viewBox="0 0 341 99" fill="none" xmlns="http://www.w3.org/2000/svg">
<g clip-path="url(#clip0_148_521)">
<path d="M83.1253 36.0931C84.615 34.0399 85.4439 31.5888 85.5034 29.0609C85.5629 26.533 84.8501 24.0463 83.4586 21.9266C80.4255 16.7091 72.3263 15.8836 66.9602 18.6244C68.1638 15.9009 68.7334 12.9439 68.6267 9.97265C67.9855 7.06862 66.3298 4.48222 63.9516 2.66974C61.5734 0.85725 58.6255 -0.0648706 55.628 0.0660494C52.6743 0.395366 49.9374 1.76224 47.9135 3.91892C45.8896 6.07559 44.7125 8.87931 44.5957 11.8219V41.1124H74.5928C76.3068 40.9742 77.9663 40.4503 79.4449 39.5804C80.9236 38.7106 82.1823 37.5179 83.1253 36.0931ZM52.6616 33.1211V13.3079C52.566 12.5624 52.6262 11.8055 52.8383 11.084C53.0505 10.3626 53.4101 9.69204 53.8948 9.11408C54.4339 8.74451 55.0475 8.49519 55.6932 8.3833C56.339 8.27141 57.0015 8.29963 57.6352 8.466C58.2689 8.63237 58.8586 8.93295 59.3637 9.34699C59.8688 9.76103 60.2772 10.2787 60.5608 10.8642C61.694 14.1665 57.6611 16.1478 57.5611 19.516C57.511 20.803 57.7244 22.0868 58.1884 23.2899C58.6523 24.493 59.3573 25.5907 60.2608 26.5167C61.6859 27.6073 63.427 28.2153 65.2273 28.2509C67.0277 28.2866 68.7919 27.7481 70.2599 26.7148C70.8753 26.1239 71.6346 25.7007 72.464 25.4866C73.2933 25.2725 74.1645 25.2747 74.9927 25.493C78.7257 26.4176 78.3257 33.055 74.1928 33.055L52.6616 33.1211Z" fill="white"/>
<path d="M29.8305 0.0990667C26.8325 -0.0506921 23.8791 0.864995 21.5021 2.68122C19.1251 4.49745 17.4807 7.09485 16.8651 10.0057C16.7646 12.9871 17.3338 15.9535 18.5316 18.6905C13.1321 15.9496 5.19955 16.7422 2.03319 21.9927C0.633971 24.1141 -0.0860213 26.6047 -0.0324966 29.1383C0.021028 31.672 0.845574 34.1306 2.33316 36.1921C3.28521 37.5955 4.54315 38.7691 6.01418 39.6264C7.4852 40.4837 9.13176 41.0028 10.8323 41.1454H41.2627V11.6898C41.1016 8.71222 39.8529 5.89435 37.7494 3.7617C35.6459 1.62906 32.8313 0.327249 29.8305 0.0990667ZM32.8302 33.1211H11.2656C7.23268 33.1211 6.73273 26.5167 10.4657 25.559C11.294 25.3408 12.1651 25.3386 12.9945 25.5527C13.8238 25.7668 14.5831 26.1899 15.1986 26.7809C16.6561 27.8399 18.4248 28.3943 20.2319 28.3585C22.039 28.3227 23.784 27.6987 25.1976 26.5827C26.153 25.6235 26.891 24.4735 27.3623 23.2094C27.8336 21.9452 28.0274 20.596 27.9307 19.2518C27.9307 15.9496 23.7977 13.8032 24.931 10.567C25.2133 9.98013 25.6219 9.46152 26.1279 9.04757C26.634 8.63362 27.2253 8.33435 27.8604 8.17074C28.4956 8.00714 29.1591 7.98315 29.8046 8.10048C30.4501 8.2178 31.0618 8.47358 31.597 8.8499C32.0808 9.42183 32.4401 10.0867 32.6523 10.8027C32.8645 11.5187 32.9251 12.2704 32.8302 13.0107V33.1211Z" fill="white"/>
<path d="M2.33316 49.6321C0.845574 51.6936 0.021028 54.1522 -0.0324966 56.6859C-0.0860212 59.2195 0.633971 61.7101 2.03319 63.8315C5.06623 69.049 13.1321 69.8416 18.5316 67.1337C17.3376 69.8602 16.7685 72.815 16.8651 75.7855C17.4869 78.6932 19.1329 81.2866 21.5085 83.1018C23.884 84.9169 26.834 85.8351 29.8305 85.6921C32.801 85.4176 35.572 84.0912 37.6351 81.9561C39.6983 79.8211 40.9152 77.0206 41.0627 74.0684V44.5137H10.8323C9.11672 44.6727 7.46006 45.2161 5.98763 46.1029C4.5152 46.9896 3.26555 48.1964 2.33316 49.6321ZM32.8302 52.7031V72.5163C32.9257 73.2618 32.8656 74.0187 32.6534 74.7402C32.4413 75.4616 32.0817 76.1322 31.597 76.7101C31.0618 77.0865 30.4501 77.3422 29.8046 77.4596C29.1591 77.5769 28.4956 77.5529 27.8604 77.3893C27.2253 77.2257 26.634 76.9264 26.1279 76.5125C25.6219 76.0985 25.2133 75.5799 24.931 74.993C23.7977 71.6908 27.8307 69.6764 27.9307 66.3082C27.9922 64.9915 27.7749 63.6767 27.2927 62.4483C26.8105 61.2198 26.0741 60.105 25.1309 59.1754C23.7163 58.0649 21.9749 57.4416 20.1705 57.3999C18.3662 57.3582 16.5973 57.9004 15.1319 58.9443C14.5145 59.5329 13.7565 59.9568 12.9288 60.1762C12.101 60.3957 11.2307 60.4036 10.399 60.1991C6.66607 59.2745 7.06603 52.6371 11.199 52.6371L32.8302 52.7031Z" fill="white"/>
<path d="M81.4587 44.4807H44.5957V81.7295C44.4623 85.8165 45.8374 89.8115 48.4633 92.9663C51.0892 96.1211 54.7859 98.2193 58.8609 98.8679C61.4238 99.223 64.0352 98.9646 66.4766 98.1143C68.9179 97.264 71.1181 95.8465 72.8929 93.9807C75.0571 91.5271 76.4825 88.5208 77.0069 85.3041C77.5313 82.0874 77.1337 78.7894 75.8593 75.7855C78.212 76.6735 80.7185 77.0927 83.2351 77.0191C85.7516 76.9454 88.2288 76.3803 90.5245 75.3562C92.6186 74.2806 94.4515 72.7665 95.8961 70.919C97.3406 69.0715 98.3624 66.9348 98.8904 64.6571C99.4354 62.0118 99.3517 59.2771 98.646 56.6694C97.9402 54.0617 96.6318 51.6524 94.8241 49.6321C93.1238 47.8419 91.0416 46.4503 88.7293 45.5591C86.417 44.6679 83.9331 44.2994 81.4587 44.4807ZM87.9248 64.7892C87.4449 65.5724 86.8111 66.252 86.0609 66.7877C85.3108 67.3234 84.4595 67.7042 83.5579 67.9075C82.6562 68.1109 81.7225 68.1325 80.8122 67.9712C79.9019 67.8099 79.0337 67.469 78.259 66.9686C75.7926 64.9873 73.2929 62.4116 69.9598 63.2702C68.6725 63.5116 67.4659 64.0665 66.4489 64.8848C65.4318 65.7032 64.6362 66.7594 64.1336 67.9582C63.6311 69.1571 63.4375 70.4609 63.5702 71.7524C63.7028 73.0438 64.1577 74.2823 64.8937 75.3562C66.2935 77.4366 67.96 77.998 68.2267 80.4086C68.3111 82.4754 67.6125 84.4988 66.2681 86.0813C64.9237 87.6638 63.0306 88.6911 60.9607 88.9613C59.92 89.0328 58.8755 88.8968 57.8888 88.5612C56.9021 88.2256 55.9935 87.6973 55.2165 87.0077C54.4396 86.318 53.8102 85.4809 53.3656 84.5459C52.921 83.6109 52.6703 82.5971 52.6282 81.5644V52.6701H82.1253C83.4677 52.8296 84.7475 53.3236 85.8449 54.1059C86.9424 54.8882 87.8219 55.9334 88.4011 57.1438C88.9803 58.3542 89.2404 59.6903 89.1571 61.0273C89.0738 62.3643 88.6498 63.6586 87.9248 64.7892Z" fill="white"/>
<path d="M169.117 17.997C169.403 17.7479 169.625 17.4357 169.767 17.0858C169.909 16.7358 169.966 16.3577 169.934 15.9819C169.901 15.6061 169.781 15.2431 169.581 14.9221C169.381 14.601 169.108 14.3309 168.784 14.1334C168.465 13.9191 168.106 13.7706 167.728 13.6968C167.35 13.6231 166.961 13.6256 166.584 13.7041C165.051 13.7041 163.251 15.9496 162.251 17.0063L157.918 21.9266H161.484L169.117 17.997Z" fill="white"/>
<path d="M214.979 24.2381C216.221 24.5043 217.512 24.4431 218.722 24.0607C219.933 23.6782 221.021 22.9879 221.878 22.0587C222.47 21.2812 222.735 20.3067 222.617 19.34C222.499 18.3732 222.007 17.4895 221.245 16.8742C218.912 14.9259 212.713 14.8599 210.913 18.4923C209.38 21.4313 212.413 23.8089 214.979 24.2381Z" fill="white"/>
<path d="M201.247 25.2948C200.165 24.7546 198.938 24.566 197.742 24.7557C196.545 24.9453 195.439 25.5037 194.581 26.3516C193.289 27.6991 192.25 29.2648 191.515 30.9746V25.3609H177.383L177.183 27.7055C178.283 27.9696 180.116 27.7055 180.516 28.9933C180.85 31.1177 180.737 33.2878 180.182 35.3666C178.831 39.0124 177.718 42.7406 176.849 46.528H188.882C190.615 41.6077 191.648 34.2108 194.914 30.7105C195.067 31.8005 195.598 32.8042 196.414 33.5504C197.343 33.9491 198.369 34.074 199.368 33.91C200.367 33.746 201.297 33.3001 202.047 32.6257C202.488 32.0958 202.818 31.4837 203.017 30.8256C203.216 30.1674 203.28 29.4764 203.206 28.7933C203.131 28.1102 202.92 27.4488 202.583 26.848C202.247 26.2472 201.792 25.7191 201.247 25.2948Z" fill="white"/>
<path d="M132.687 18.2281C136.653 18.3933 137.92 23.2145 138.187 26.5167H141.253L143.853 15.8175H140.986C140.912 16.1624 140.757 16.4851 140.533 16.7595C140.31 17.0339 140.024 17.2523 139.7 17.397C139.375 17.5417 139.021 17.6087 138.665 17.5924C138.31 17.5762 137.963 17.4772 137.653 17.3035C135.571 16.2656 133.309 15.6269 130.987 15.4213C124.621 14.992 112.889 18.1621 109.623 29.0263C108.973 30.9622 108.771 33.0178 109.03 35.0416C109.288 37.0654 110.002 39.0059 111.118 40.7201C112.235 42.4344 113.725 43.8787 115.479 44.9467C117.233 46.0147 119.207 46.6792 121.255 46.8913C125.041 47.4861 128.918 46.7697 132.232 44.8629C135.547 42.9561 138.097 39.9755 139.453 36.4233L136.72 35.1354C134.887 38.2065 133.387 41.7398 129.687 43.2919C126.888 44.4806 123.021 43.556 122.755 41.3105C121.488 34.475 124.188 27.8376 127.088 21.7945C127.624 20.766 128.423 19.8952 129.406 19.2693C130.389 18.6434 131.52 18.2843 132.687 18.2281Z" fill="white"/>
<path d="M171.25 42.004C169.717 42.004 170.617 39.7915 170.883 38.7018L174.583 25.3279H162.317L161.451 27.5073C160.546 26.3543 159.317 25.4925 157.918 25.0307C152.352 23.0824 145.119 27.4083 142.819 33.1541C140.72 38.3386 142.553 45.2072 148.152 46.8913C150.149 47.3025 152.225 47.099 154.101 46.308C155.978 45.5171 157.565 44.1766 158.651 42.4663C158.651 45.1741 161.351 46.7922 163.784 47.0894C166.336 47.2851 168.888 46.6996 171.093 45.4122C173.299 44.1247 175.052 42.1973 176.116 39.8906L174.316 38.5697C173.516 39.7255 172.583 41.971 171.25 42.004ZM159.451 35.7298C158.784 37.6121 158.384 40.419 156.485 41.2445C154.585 42.0701 154.418 40.2538 154.685 39.1311C155.212 35.8542 156.222 32.672 157.685 29.6868C157.834 29.3872 158.087 29.1512 158.398 29.022C158.709 28.8928 159.057 28.8791 159.377 28.9836C159.698 29.088 159.969 29.3035 160.142 29.5905C160.315 29.8774 160.377 30.2165 160.318 30.5454C160.189 32.309 159.842 34.0503 159.284 35.7298H159.451Z" fill="white"/>
<path d="M298.171 33.1211C296.304 32.3286 293.271 31.1068 294.638 28.7292C295.089 28.1018 295.765 27.6698 296.528 27.5223C297.291 27.3749 298.082 27.5232 298.738 27.9366C298.429 28.1903 298.191 28.5172 298.046 28.8868C297.9 29.2565 297.851 29.6567 297.904 30.05C297.904 32.989 302.637 34.1778 304.57 32.1304C304.954 31.5895 305.197 30.9627 305.276 30.3061C305.355 29.6495 305.269 28.9837 305.024 28.3684C304.78 27.7531 304.385 27.2076 303.875 26.7806C303.366 26.3537 302.757 26.0588 302.104 25.9223C296.749 24.5206 291.073 24.9631 286.005 27.1771C285.085 27.5927 284.291 28.2424 283.706 29.0602C283.12 29.878 282.764 30.8347 282.672 31.8332C281.906 37.3809 288.972 37.6451 291.772 41.1124C293.171 42.8296 290.972 44.4146 289.105 44.5797C288.688 44.7124 288.246 44.7487 287.813 44.6857C287.379 44.6227 286.966 44.4622 286.605 44.2165C287.115 43.5608 287.406 42.7646 287.439 41.938C287.805 38.999 284.106 37.513 281.606 38.3386C280.439 38.7679 280.573 38.999 279.939 39.9566L278.406 38.8999C277.506 40.1878 276.506 42.6645 274.773 42.2021C273.807 41.971 274.24 40.6831 274.773 39.0981L278.706 25.493H266.441L265.541 27.9697C263.674 24.6675 258.875 24.4693 255.542 25.3939C252.572 26.388 250.026 28.3407 248.309 30.9391C246.593 33.5376 245.807 36.6316 246.076 39.7255C246.164 41.2382 246.663 42.6992 247.519 43.9546C248.376 45.21 249.558 46.2131 250.942 46.8582C253.057 47.5149 255.325 47.4985 257.43 46.8114C259.534 46.1243 261.368 44.8011 262.674 43.0277C262.729 43.6785 262.923 44.3101 263.245 44.8799C263.567 45.4496 264.009 45.9441 264.541 46.3299C266.228 47.1376 268.089 47.521 269.961 47.4462C271.833 47.3713 273.658 46.8405 275.273 45.9006C276.859 44.867 278.209 43.5174 279.239 41.938C279.706 45.7355 283.872 47.2545 287.205 47.5517C292.035 48.1456 296.932 47.2582 301.237 45.009C302.573 44.2795 303.595 43.092 304.11 41.6694C304.626 40.2468 304.6 38.6868 304.037 37.2819C303.104 34.7722 300.471 34.0127 298.171 33.1211ZM264.208 32.5927C263.984 34.3728 263.524 36.1159 262.841 37.7772C262.274 39.2302 261.908 41.0794 260.341 41.5747C258.775 42.0701 258.475 40.9473 258.608 39.8576C258.703 38.5862 258.915 37.3261 259.241 36.0931C259.769 33.9043 260.587 31.7946 261.674 29.8189C261.801 29.6417 261.968 29.4972 262.162 29.3974C262.357 29.2976 262.572 29.2456 262.791 29.2456C263.01 29.2456 263.226 29.2976 263.42 29.3974C263.614 29.4972 263.781 29.6417 263.908 29.8189C264.295 30.6787 264.4 31.6375 264.208 32.5597V32.5927Z" fill="white"/>
<path d="M239.61 42.5654C237.843 42.9947 238.677 40.1217 238.977 39.2632L241.943 28.564H247.909L248.476 25.9223H242.81L244.943 17.8649H233.211L230.478 25.8892H226.145L225.545 28.564H229.611C229.311 31.6681 226.578 38.7678 226.545 41.1784C226.568 42.7236 227.16 44.2073 228.209 45.3505C229.259 46.4937 230.694 47.2177 232.244 47.3866C234.807 47.8081 237.439 47.3916 239.742 46.2001C242.045 45.0086 243.894 43.1068 245.009 40.7822L242.943 39.4613C241.943 40.3859 241.243 42.1691 239.61 42.5654Z" fill="white"/>
<path d="M217.912 42.7305C216.979 42.7305 218.179 38.3055 218.779 36.1261L221.845 25.3609L204.947 25.7902L204.313 28.0027C205.445 27.9703 206.574 28.1381 207.646 28.498C208.58 29.4556 207.646 31.2718 207.446 32.5267C207.146 36.4893 203.813 40.9473 206.28 44.7118C206.837 45.4905 207.578 46.1229 208.437 46.5544C209.297 46.9859 210.249 47.2035 211.213 47.1885C213.697 47.4513 216.203 46.9605 218.399 45.7812C220.595 44.6018 222.378 42.7895 223.511 40.5841L221.778 39.1641C220.978 40.452 219.345 43.0277 217.912 42.7305Z" fill="white"/>
<path d="M111.022 75.026H107.023L110.056 58.515C111.078 58.3242 112.115 58.2247 113.156 58.2178C115.255 58.0767 117.336 58.686 119.022 59.9349C119.774 60.5462 120.37 61.3262 120.758 62.2105C121.146 63.0948 121.317 64.0579 121.255 65.0203C121.338 66.3427 121.136 67.6673 120.663 68.9065C120.189 70.1456 119.456 71.2709 118.51 72.2078C117.565 73.1446 116.429 73.8715 115.178 74.3403C113.927 74.8091 112.59 75.0091 111.256 74.9269L111.022 75.026ZM112.522 60.9916L110.489 72.4173H111.389C112.307 72.4523 113.221 72.2768 114.059 71.9045C114.897 71.5322 115.638 70.9731 116.222 70.2708C117.414 68.7326 118.016 66.8252 117.922 64.8882C117.947 64.3435 117.85 63.7999 117.637 63.2972C117.423 62.7945 117.099 62.3453 116.689 61.9823C115.819 61.2167 114.684 60.8143 113.522 60.8596C113.186 60.8766 112.851 60.9208 112.522 60.9916Z" fill="white"/>
<path d="M125.988 75.026H123.121L124.954 65.1194H123.388L123.888 62.8739H128.254L125.988 75.026ZM125.154 59.1424C125.146 58.9074 125.189 58.6734 125.281 58.4567C125.374 58.24 125.512 58.0458 125.688 57.8876C126.051 57.5575 126.529 57.3799 127.021 57.3923C127.503 57.385 127.968 57.5625 128.321 57.8876C128.49 58.0507 128.625 58.2458 128.717 58.4613C128.809 58.6769 128.856 58.9085 128.856 59.1424C128.856 59.3764 128.809 59.608 128.717 59.8235C128.625 60.0391 128.49 60.2342 128.321 60.3973C127.968 60.7224 127.503 60.8998 127.021 60.8926C126.529 60.905 126.051 60.7274 125.688 60.3973C125.519 60.234 125.384 60.0389 125.293 59.8233C125.201 59.6078 125.154 59.3763 125.154 59.1424Z" fill="white"/>
<path d="M130.187 70.535C130.135 68.5138 130.848 66.5464 132.187 65.0203C132.825 64.3195 133.608 63.7623 134.482 63.3863C135.356 63.0104 136.301 62.8244 137.253 62.8409C137.91 62.7975 138.569 62.8831 139.193 63.0928C139.816 63.3025 140.392 63.6321 140.886 64.0627C141.309 64.5019 141.638 65.0202 141.856 65.5873C142.073 66.1543 142.174 66.7587 142.153 67.3649C142.212 69.4072 141.499 71.3977 140.153 72.9456C139.517 73.6628 138.732 74.2349 137.852 74.6225C136.972 75.0102 136.017 75.2042 135.054 75.1911C134.402 75.2319 133.749 75.145 133.131 74.9353C132.513 74.7257 131.943 74.3974 131.454 73.9693C131.015 73.5145 130.676 72.9746 130.458 72.3835C130.24 71.7925 130.148 71.1631 130.187 70.535ZM133.12 70.535C133.12 72.2522 133.854 73.1107 135.353 73.1107C135.921 73.0993 136.475 72.9447 136.965 72.6616C137.455 72.3784 137.864 71.9761 138.153 71.4927C138.867 70.3309 139.226 68.9888 139.186 67.6291C139.186 66.011 138.453 65.2185 136.953 65.2185C136.395 65.2319 135.849 65.3841 135.366 65.6611C134.883 65.9381 134.477 66.3309 134.187 66.8035C133.488 67.876 133.117 69.1262 133.12 70.4029V70.535Z" fill="white"/>
<path d="M153.385 66.1431C152.695 65.6153 151.856 65.3151 150.985 65.2845C150.385 65.2665 149.788 65.3885 149.244 65.6409C148.7 65.8933 148.223 66.269 147.852 66.7375C147.03 67.7564 146.605 69.0335 146.652 70.3369C146.638 71.0334 146.875 71.7122 147.319 72.2522C147.529 72.5048 147.794 72.7072 148.094 72.8444C148.394 72.9816 148.722 73.0501 149.052 73.0447C150.336 72.964 151.571 72.5293 152.618 71.7899L152.285 74.6958C151.16 75.1798 149.946 75.4272 148.719 75.4223C147.379 75.4882 146.065 75.0386 145.053 74.1675C144.604 73.7098 144.254 73.1662 144.025 72.57C143.796 71.9738 143.692 71.3376 143.719 70.7002C143.646 68.6715 144.348 66.6902 145.686 65.1525C146.31 64.4082 147.096 63.8135 147.985 63.4132C148.873 63.0129 149.842 62.8172 150.819 62.8409C151.912 62.8173 152.993 63.0793 153.952 63.6004L153.385 66.1431Z" fill="white"/>
<path d="M158.484 69.8085C158.484 70.0067 158.484 70.1718 158.484 70.3369C158.466 70.6919 158.525 71.0468 158.657 71.3773C158.789 71.7077 158.992 72.0061 159.251 72.2522C159.838 72.7343 160.591 72.9712 161.351 72.9126C161.914 72.9022 162.47 72.7787 162.984 72.5494C163.521 72.3378 164.017 72.0362 164.451 71.6578L164.117 74.6298C163.008 75.0801 161.816 75.2939 160.618 75.2572C159.943 75.2849 159.271 75.1762 158.64 74.9377C158.01 74.6993 157.435 74.3361 156.951 73.8702C156.47 73.3514 156.098 72.7422 155.857 72.0787C155.617 71.4151 155.513 70.7106 155.551 70.0067C155.525 69.0569 155.692 68.1116 156.041 67.2267C156.39 66.3418 156.915 65.5354 157.585 64.8552C158.268 64.1782 159.086 63.6495 159.987 63.3027C160.888 62.9559 161.852 62.7986 162.817 62.8409C163.912 62.7876 164.997 63.0763 165.917 63.6664C166.301 63.9089 166.614 64.247 166.824 64.6468C167.035 65.0467 167.136 65.4943 167.117 65.945C167.145 66.6012 166.996 67.253 166.686 67.8334C166.375 68.4138 165.914 68.9017 165.35 69.2472C164.028 70.0464 162.499 70.4479 160.951 70.4029C160.099 70.3554 159.263 70.154 158.484 69.8085ZM159.018 67.6951C159.54 67.8299 160.078 67.8965 160.618 67.8933C161.519 67.9276 162.417 67.77 163.251 67.431C163.543 67.3444 163.802 67.1715 163.992 66.9355C164.183 66.6995 164.296 66.4116 164.317 66.1101C164.317 65.4496 163.584 65.1194 162.151 65.1194C161.502 65.1418 160.885 65.4005 160.418 65.8459C159.816 66.3493 159.337 66.9816 159.018 67.6951Z" fill="white"/>
<path d="M176.649 66.3082C175.989 65.6244 175.101 65.2019 174.15 65.1194C173.725 65.1024 173.305 65.2179 172.95 65.4496C172.786 65.5263 172.649 65.6482 172.555 65.8006C172.46 65.953 172.412 66.1293 172.416 66.3082C172.416 66.7375 172.85 67.1668 173.65 67.5961L175.549 68.5537C175.975 68.8017 176.339 69.14 176.616 69.5444C176.912 69.971 177.064 70.4798 177.049 70.9973C177.097 71.628 176.984 72.2603 176.722 72.837C176.46 73.4136 176.057 73.9164 175.549 74.2995C174.433 75.0851 173.085 75.4801 171.716 75.4223C170.36 75.3434 169.05 74.9105 167.917 74.1675L169.383 71.5917C170.112 72.3698 171.114 72.8423 172.183 72.9126C172.68 72.9318 173.171 72.793 173.583 72.5164C173.767 72.3853 173.915 72.211 174.013 72.0093C174.112 71.8076 174.159 71.5847 174.15 71.3606C174.15 70.9313 173.816 70.5681 173.083 70.1718L171.217 69.1811C170.71 68.9247 170.284 68.5366 169.983 68.0584C169.691 67.6299 169.54 67.1224 169.55 66.6054C169.536 66.0648 169.657 65.5292 169.901 65.0455C170.145 64.5619 170.505 64.145 170.95 63.8316C171.919 63.1377 173.087 62.7676 174.283 62.7749C175.555 62.8595 176.8 63.1845 177.949 63.7325L176.649 66.3082Z" fill="white"/>
<path d="M189.848 70.7332C189.81 71.0402 189.81 71.3507 189.848 71.6578C189.785 72.7732 189.92 73.8911 190.248 74.96H188.482C187.948 74.96 187.548 74.5637 187.282 73.7712C186.812 74.2395 186.25 74.6071 185.631 74.8514C185.011 75.0956 184.348 75.2113 183.682 75.1911C183.123 75.2267 182.562 75.1484 182.035 74.961C181.508 74.7735 181.025 74.481 180.616 74.1014C180.238 73.6876 179.948 73.202 179.765 72.6742C179.581 72.1463 179.508 71.5871 179.549 71.0304C179.491 68.8868 180.226 66.7962 181.616 65.1524C182.256 64.4103 183.054 63.8181 183.953 63.4184C184.853 63.0187 185.83 62.8215 186.815 62.8409C188.314 62.7717 189.814 62.9617 191.248 63.4023L189.848 70.7332ZM186.515 65.0864C185.892 65.0728 185.277 65.2327 184.741 65.548C184.205 65.8632 183.769 66.3211 183.482 66.8696C182.712 68.1212 182.319 69.5648 182.349 71.0304C182.311 71.2921 182.334 71.559 182.417 71.8102C182.501 72.0615 182.641 72.2903 182.828 72.4789C183.015 72.6674 183.244 72.8107 183.496 72.8973C183.748 72.984 184.017 73.0119 184.282 72.9787C184.739 72.9424 185.178 72.7854 185.553 72.5241C185.928 72.2627 186.226 71.9066 186.415 71.4927C187.281 69.5197 187.832 67.4253 188.048 65.2845C187.558 65.1606 187.055 65.0941 186.548 65.0864H186.515Z" fill="white"/>
<path d="M203.413 75.026H200.48L201.814 68.0253C201.856 67.5529 201.856 67.0778 201.814 66.6054C201.814 65.6147 201.247 65.1194 200.047 65.1194C199.529 65.131 199.019 65.2484 198.548 65.4643C198.078 65.6803 197.658 65.99 197.314 66.3742L195.681 75.026H192.848L194.581 66.1431C194.603 65.9235 194.603 65.7022 194.581 65.4827C194.561 64.767 194.449 64.0569 194.248 63.3692L197.014 62.8409L197.281 64.1948C198.374 63.2483 199.797 62.7624 201.247 62.8409C203.713 62.8409 204.98 63.9967 204.98 66.3082C205.022 66.8027 205.022 67.2997 204.98 67.7942L203.413 75.026Z" fill="white"/>
<path d="M217.212 70.7332C217.174 71.0402 217.174 71.3507 217.212 71.6578C217.149 72.7732 217.284 73.8911 217.612 74.96H215.846C215.312 74.96 214.912 74.5637 214.679 73.7712C214.202 74.2388 213.634 74.6058 213.009 74.8498C212.385 75.0939 211.717 75.21 211.046 75.1911C210.487 75.2229 209.928 75.1427 209.401 74.9555C208.874 74.7683 208.391 74.4778 207.98 74.1014C207.232 73.2556 206.849 72.1529 206.913 71.0304C206.867 68.8831 207.614 66.793 209.013 65.1524C209.65 64.4147 210.443 63.825 211.336 63.4255C212.229 63.026 213.199 62.8264 214.179 62.8409C215.679 62.7662 217.18 62.9563 218.612 63.4023L217.212 70.7332ZM213.879 65.0864C213.25 65.0666 212.629 65.2235 212.086 65.5391C211.543 65.8546 211.102 66.3159 210.813 66.8696C210.058 68.1275 209.666 69.5668 209.68 71.0304C209.642 71.2921 209.665 71.559 209.748 71.8102C209.831 72.0615 209.972 72.2903 210.159 72.4789C210.346 72.6675 210.575 72.8107 210.827 72.8974C211.079 72.984 211.348 73.0119 211.613 72.9787C212.071 72.9459 212.511 72.7902 212.887 72.5285C213.263 72.2667 213.56 71.9087 213.746 71.4927C214.644 69.5309 215.197 67.4311 215.379 65.2845C214.911 65.1633 214.43 65.0968 213.946 65.0864H213.879Z" fill="white"/>
<path d="M238.31 75.026H235.477L235.71 73.9033C235.36 74.3881 234.884 74.77 234.332 75.0084C233.781 75.2468 233.174 75.3327 232.577 75.2572C231.967 75.2923 231.355 75.2019 230.782 74.9917C230.208 74.7814 229.685 74.4558 229.244 74.0354C228.434 73.1265 228.005 71.9452 228.044 70.7332C227.975 68.6807 228.662 66.6735 229.977 65.0864C230.621 64.3607 231.416 63.7835 232.309 63.3955C233.202 63.0075 234.169 62.8182 235.144 62.8409C235.607 62.8616 236.066 62.9392 236.51 63.072C236.912 63.1657 237.287 63.3462 237.61 63.6004L238.677 58.1518H241.41L238.31 75.026ZM235.344 65.1194C234.745 65.0948 234.15 65.2106 233.605 65.4573C233.061 65.7041 232.583 66.0748 232.211 66.5394C231.411 67.5809 230.999 68.864 231.044 70.1718C231.044 72.021 231.811 72.9126 233.344 72.9126C234.877 72.9126 236.077 71.6247 236.677 69.016L237.243 66.1431C237.068 65.8043 236.792 65.5274 236.452 65.3501C236.112 65.1728 235.725 65.1037 235.344 65.1524V65.1194Z" fill="white"/>
<path d="M245.276 69.8085C245.261 69.9843 245.261 70.1611 245.276 70.3369C245.258 70.6919 245.316 71.0468 245.449 71.3773C245.581 71.7077 245.784 72.0061 246.043 72.2522C246.629 72.7343 247.382 72.9712 248.142 72.9126C248.706 72.9022 249.262 72.7787 249.776 72.5494C250.312 72.3378 250.809 72.0362 251.242 71.6578L250.909 74.6298C249.789 75.0828 248.585 75.2966 247.376 75.2572C246.707 75.2804 246.041 75.1695 245.416 74.9311C244.792 74.6928 244.223 74.332 243.743 73.8702C243.261 73.3514 242.889 72.7422 242.649 72.0787C242.408 71.4151 242.304 70.7106 242.343 70.0067C242.317 69.0569 242.483 68.1116 242.832 67.2267C243.182 66.3418 243.707 65.5354 244.376 64.8552C245.06 64.1782 245.878 63.6495 246.779 63.3027C247.679 62.9559 248.643 62.7986 249.609 62.8409C250.704 62.7876 251.788 63.0763 252.709 63.6664C253.092 63.9089 253.405 64.247 253.616 64.6468C253.826 65.0467 253.927 65.4943 253.908 65.945C253.937 66.6012 253.788 67.253 253.477 67.8334C253.167 68.4138 252.706 68.9017 252.142 69.2472C250.819 70.0464 249.291 70.4479 247.742 70.4029C246.891 70.3554 246.055 70.154 245.276 69.8085ZM245.809 67.6951C246.332 67.8299 246.869 67.8965 247.409 67.8933C248.3 67.9313 249.187 67.7734 250.009 67.431C250.332 67.3871 250.629 67.2356 250.854 67.0015C251.078 66.7674 251.215 66.4646 251.242 66.1431C251.242 65.4827 250.542 65.1524 249.109 65.1524C248.461 65.1748 247.843 65.4335 247.376 65.8789C246.717 66.3543 246.181 66.9765 245.809 67.6951Z" fill="white"/>
<path d="M275.806 75.026L275.606 66.1431L270.574 75.2572H269.54L267.907 66.1431L264.574 75.1251H261.574L267.741 58.6141H269.407L271.074 69.049L276.573 58.6141H278.273L278.739 75.1251L275.806 75.026Z" fill="white"/>
<path d="M291.505 70.7332C291.466 71.0402 291.466 71.3507 291.505 71.6578C291.441 72.7732 291.577 73.8911 291.905 74.96H290.138C289.605 74.96 289.205 74.5637 288.938 73.7712C288.469 74.2395 287.907 74.6071 287.287 74.8514C286.668 75.0957 286.005 75.2113 285.339 75.1911C284.78 75.2267 284.219 75.1484 283.692 74.961C283.164 74.7736 282.681 74.481 282.272 74.1014C281.909 73.6929 281.63 73.217 281.453 72.7013C281.275 72.1855 281.203 71.6401 281.239 71.0964C281.199 68.9557 281.932 66.8712 283.306 65.2185C283.936 64.4687 284.726 63.8665 285.619 63.4554C286.513 63.0443 287.487 62.8345 288.472 62.8409C289.971 62.769 291.472 62.959 292.905 63.4023L291.505 70.7332ZM288.172 65.0864C287.549 65.0728 286.934 65.2327 286.398 65.548C285.862 65.8632 285.425 66.3211 285.139 66.8696C284.369 68.1212 283.976 69.5648 284.006 71.0304C283.968 71.2921 283.991 71.559 284.074 71.8102C284.157 72.0615 284.298 72.2903 284.485 72.4789C284.672 72.6675 284.901 72.8107 285.153 72.8974C285.405 72.984 285.674 73.0119 285.939 72.9787C286.396 72.9424 286.835 72.7854 287.21 72.5241C287.585 72.2627 287.883 71.9066 288.072 71.4927C288.953 69.5249 289.505 67.4281 289.705 65.2845C289.215 65.1587 288.711 65.0922 288.205 65.0864H288.172Z" fill="white"/>
<path d="M305.337 75.026H302.504L302.704 73.9033C302.356 74.3828 301.886 74.7614 301.341 74.9995C300.795 75.2376 300.196 75.3266 299.604 75.2572C298.993 75.2964 298.381 75.2079 297.806 74.9974C297.232 74.7869 296.709 74.4592 296.271 74.0354C295.461 73.1265 295.032 71.9452 295.071 70.7332C294.986 68.6785 295.675 66.6659 297.004 65.0864C297.647 64.3607 298.443 63.7835 299.336 63.3955C300.228 63.0075 301.196 62.8182 302.171 62.8409C302.634 62.8616 303.093 62.9392 303.537 63.072C303.933 63.1795 304.306 63.3586 304.637 63.6004L305.67 58.1518H308.403L305.337 75.026ZM302.337 65.1194C301.744 65.0947 301.153 65.2107 300.614 65.4576C300.075 65.7046 299.603 66.0754 299.237 66.5394C298.425 67.5743 298.012 68.8621 298.071 70.1718C298.071 72.021 298.838 72.9126 300.371 72.9126C301.904 72.9126 303.07 71.6247 303.704 69.016L304.237 66.1431C304.066 65.8011 303.79 65.5212 303.449 65.3434C303.108 65.1655 302.719 65.0987 302.337 65.1524V65.1194Z" fill="white"/>
<path d="M318.236 65.8459C317.739 65.4253 317.12 65.171 316.469 65.1194C315.725 65.2018 315.043 65.5692 314.569 66.1431C313.987 66.7461 313.594 67.503 313.436 68.3225L312.169 74.9269H309.303L311.57 62.9069H314.436L314.236 63.9636C315.145 63.1363 316.334 62.6767 317.569 62.6758C318.13 62.7031 318.688 62.7805 319.235 62.9069L318.236 65.8459Z" fill="white"/>
<path d="M323.535 75.026H320.669L322.502 65.1194H320.935L321.435 62.8739H325.802L323.535 75.026ZM322.702 59.1424C322.702 58.9086 322.749 58.6771 322.84 58.4615C322.932 58.246 323.066 58.0509 323.235 57.8876C323.598 57.5575 324.076 57.3799 324.568 57.3923C325.05 57.385 325.516 57.5625 325.868 57.8876C326.038 58.0507 326.172 58.2458 326.264 58.4613C326.356 58.6769 326.403 58.9085 326.403 59.1424C326.403 59.3764 326.356 59.608 326.264 59.8235C326.172 60.0391 326.038 60.2342 325.868 60.3973C325.516 60.7224 325.05 60.8998 324.568 60.8926C324.329 60.9016 324.09 60.8624 323.867 60.7772C323.644 60.6921 323.44 60.5628 323.268 60.3973C323.089 60.2407 322.945 60.0476 322.847 59.8311C322.749 59.6145 322.7 59.3796 322.702 59.1424Z" fill="white"/>
<path d="M337.9 75.026H335.067L335.301 73.9033C334.95 74.3881 334.474 74.77 333.923 75.0084C333.371 75.2468 332.764 75.3327 332.168 75.2572C331.557 75.2923 330.946 75.2019 330.372 74.9917C329.798 74.7814 329.275 74.4558 328.835 74.0353C328.024 73.1265 327.595 71.9452 327.635 70.7331C327.565 68.6807 328.253 66.6735 329.568 65.0864C330.214 64.3667 331.011 63.7957 331.904 63.4135C332.796 63.0313 333.762 62.8471 334.734 62.8739C335.197 62.8946 335.656 62.9722 336.1 63.1051C336.497 63.2125 336.87 63.3916 337.2 63.6334L338.267 58.1848H341L337.9 75.026ZM334.934 65.1194C334.336 65.0948 333.74 65.2106 333.196 65.4573C332.651 65.7041 332.173 66.0748 331.801 66.5393C331.001 67.5809 330.589 68.864 330.634 70.1718C330.634 72.021 331.401 72.9126 332.934 72.9126C334.467 72.9126 335.667 71.6247 336.267 69.016L336.834 66.1431C336.659 65.8043 336.382 65.5274 336.042 65.3501C335.702 65.1727 335.315 65.1037 334.934 65.1524V65.1194Z" fill="white"/>
</g>
<defs>
<clipPath id="clip0_148_521">
<rect width="341" height="99" fill="white"/>
</clipPath>
</defs>
</svg>
