<svg width="341" height="37" viewBox="0 0 341 37" fill="none" xmlns="http://www.w3.org/2000/svg">
<path d="M12.3821 36.3364L36.081 36.3364L36.081 12.0886C36.1667 9.42812 35.2827 6.8275 33.5945 4.77383C31.9063 2.72016 29.5298 1.35432 26.91 0.932109C25.2623 0.700953 23.5835 0.869178 22.014 1.4227C20.4445 1.97622 19.03 2.89892 17.889 4.11355C16.4977 5.71073 15.5813 7.6677 15.2441 9.76169C14.907 11.8557 15.1626 14.0026 15.9819 15.958C14.4694 15.3799 12.858 15.107 11.2401 15.155C9.62223 15.2029 8.0297 15.5708 6.55381 16.2374C5.20754 16.9376 4.0292 17.9233 3.10049 19.1259C2.17178 20.3286 1.51493 21.7195 1.17549 23.2022C0.82509 24.9242 0.878877 26.7043 1.33259 28.4019C1.78631 30.0994 2.6275 31.6678 3.78965 32.9829C4.88272 34.1483 6.22137 35.0541 7.70791 35.6343C9.19446 36.2145 10.7914 36.4543 12.3821 36.3364ZM8.22516 23.1162C8.53362 22.6064 8.9411 22.1639 9.42338 21.8152C9.90566 21.4665 10.4529 21.2186 11.0326 21.0862C11.6122 20.9539 12.2125 20.9398 12.7977 21.0448C13.3829 21.1498 13.9411 21.3717 14.4391 21.6974C16.0248 22.9872 17.6319 24.6639 19.7746 24.105C20.6022 23.9479 21.3779 23.5867 22.0318 23.0539C22.6856 22.5212 23.1971 21.8337 23.5202 21.0533C23.8433 20.2729 23.9678 19.4241 23.8825 18.5834C23.7972 17.7427 23.5048 16.9365 23.0316 16.2374C22.1316 14.8831 21.0603 14.5177 20.8888 12.9485C20.8346 11.6031 21.2837 10.2859 22.148 9.25578C23.0123 8.22562 24.2294 7.5569 25.56 7.38097C26.2291 7.33442 26.9006 7.42299 27.5349 7.64143C28.1693 7.85988 28.7534 8.20376 29.2529 8.65273C29.7524 9.1017 30.157 9.64663 30.4429 10.2553C30.7287 10.8639 30.8899 11.5239 30.9169 12.1961L30.9169 31.0053L11.9535 31.0053C11.0905 30.9015 10.2678 30.5799 9.56224 30.0706C8.85668 29.5614 8.29131 28.881 7.91893 28.0931C7.54656 27.3051 7.37934 26.4354 7.43289 25.565C7.48644 24.6947 7.75902 23.8522 8.22516 23.1162Z" fill="white"/>
<path d="M65.2776 31.7206C62.6642 34.554 59.2548 35.9708 55.0496 35.9708C53.1489 35.9708 51.3789 35.6595 49.7395 35.037C48.1002 34.4145 46.6747 33.5666 45.463 32.4933C44.2751 31.3986 43.3366 30.1214 42.6476 28.6618C41.9586 27.2021 41.6141 25.6244 41.6141 23.9286C41.6141 22.2328 41.9586 20.6551 42.6476 19.1955C43.3366 17.7358 44.2751 16.4694 45.463 15.3961C46.6747 14.3013 48.1002 13.4427 49.7395 12.8202C51.3789 12.1977 53.1489 11.8865 55.0496 11.8865C57.1403 11.8865 58.946 12.2085 60.4665 12.8524C62.0108 13.4964 63.4125 14.4301 64.6717 15.6537L60.7872 19.0667C60.122 18.3798 59.3261 17.811 58.3995 17.3602C57.4729 16.8879 56.3682 16.6518 55.0852 16.6518C53.9685 16.6518 52.9232 16.8235 51.9491 17.167C50.9987 17.5104 50.1672 18.0041 49.4544 18.6481C48.7417 19.2921 48.1834 20.0648 47.7795 20.9664C47.3756 21.8465 47.1736 22.8339 47.1736 23.9286C47.1736 25.0234 47.3756 26.0215 47.7795 26.923C48.1834 27.8031 48.7417 28.5652 49.4544 29.2091C50.1672 29.8531 50.9987 30.3468 51.9491 30.6902C52.9232 31.0337 53.9685 31.2054 55.0852 31.2054C56.4394 31.2054 57.6155 30.9586 58.6133 30.4649C59.6112 29.9711 60.514 29.2628 61.3218 28.3398L65.2776 31.7206Z" fill="white"/>
<path d="M77.7973 12.4016H84.2121L93.763 35.4556H87.6333L85.6732 30.3039H76.3361L74.3761 35.4556H68.2464L77.7973 12.4016ZM83.8913 25.7317L82.0382 20.902L81.1829 18.0685H80.8265L79.9712 20.902L78.118 25.7317H83.8913Z" fill="white"/>
<path d="M98.0122 12.4016H103.5L110.771 23.671H111.127L118.397 12.4016H123.885V35.4556H118.397V25.2487L118.753 21.385H118.397L112.588 30.5614H109.309L103.5 21.385H103.144L103.5 25.2487V35.4556H98.0122V12.4016Z" fill="white"/>
<path d="M130.269 35.4556V12.4016H139.392C140.699 12.4016 141.898 12.5841 142.991 12.949C144.108 13.3139 145.07 13.8291 145.878 14.4945C146.686 15.1385 147.315 15.922 147.767 16.845C148.218 17.768 148.444 18.7876 148.444 19.9038C148.444 21.02 148.218 22.0397 147.767 22.9627C147.315 23.8857 146.686 24.6799 145.878 25.3453C145.07 25.9893 144.108 26.4937 142.991 26.8587C141.898 27.2236 140.699 27.406 139.392 27.406H135.828V35.4556H130.269ZM139.57 22.6407C140.734 22.6407 141.601 22.3831 142.172 21.8679C142.742 21.3528 143.027 20.6981 143.027 19.9038C143.027 19.1096 142.742 18.4549 142.172 17.9397C141.601 17.4246 140.734 17.167 139.57 17.167H135.828V22.6407H139.57Z" fill="white"/>
<path d="M162.715 35.9708C161.17 35.9708 159.769 35.7561 158.51 35.3268C157.25 34.876 156.181 34.2213 155.302 33.3627C154.423 32.5041 153.746 31.463 153.271 30.2395C152.796 28.9945 152.558 27.5777 152.558 25.9893V12.4016H158.117V26.3113C158.117 27.728 158.51 28.8979 159.294 29.8209C160.078 30.7439 161.218 31.2054 162.715 31.2054C164.212 31.2054 165.352 30.7439 166.136 29.8209C166.92 28.8979 167.312 27.728 167.312 26.3113V12.4016H172.872V25.9893C172.872 27.449 172.634 28.7905 172.159 30.0141C171.684 31.2376 171.006 32.2894 170.127 33.1695C169.248 34.0496 168.179 34.7365 166.92 35.2302C165.661 35.7239 164.259 35.9708 162.715 35.9708Z" fill="white"/>
<path d="M186.757 35.9708C184.382 35.9708 182.326 35.4019 180.592 34.2642C178.881 33.1051 177.67 31.4523 176.957 29.3057L182.196 27.4382C182.505 28.533 183.015 29.4345 183.728 30.1429C184.441 30.8512 185.451 31.2054 186.757 31.2054C187.185 31.2054 187.589 31.1625 187.969 31.0766C188.373 30.9908 188.717 30.862 189.003 30.6902C189.311 30.4971 189.561 30.2609 189.751 29.9819C189.941 29.7028 190.036 29.3808 190.036 29.0159C190.036 28.651 189.953 28.3183 189.787 28.0178C189.644 27.6958 189.395 27.406 189.038 27.1484C188.682 26.8694 188.207 26.6011 187.613 26.3435C187.019 26.0644 186.27 25.7746 185.368 25.4741L183.799 24.959C183.134 24.7443 182.445 24.4545 181.732 24.0896C181.044 23.7032 180.414 23.2417 179.844 22.7051C179.273 22.1684 178.81 21.5567 178.454 20.8698C178.097 20.1614 177.919 19.3779 177.919 18.5193C177.919 17.5963 178.121 16.7269 178.525 15.9113C178.929 15.0956 179.499 14.3979 180.236 13.8184C180.972 13.2173 181.863 12.7451 182.909 12.4016C183.954 12.0582 185.106 11.8865 186.365 11.8865C187.696 11.8865 188.836 12.0475 189.787 12.3694C190.737 12.67 191.545 13.0671 192.21 13.5608C192.875 14.033 193.398 14.5697 193.778 15.1707C194.182 15.7717 194.491 16.3513 194.705 16.9094L189.894 18.7447C189.632 18.0578 189.216 17.5104 188.646 17.1026C188.076 16.6733 187.34 16.4586 186.437 16.4586C185.486 16.4586 184.726 16.6411 184.156 17.006C183.609 17.3494 183.336 17.8002 183.336 18.3583C183.336 18.9379 183.621 19.4531 184.191 19.9038C184.762 20.3546 185.771 20.8054 187.221 21.2562L188.789 21.7391C190.951 22.4046 192.626 23.2954 193.814 24.4116C195.002 25.5278 195.596 27.0304 195.596 28.9193C195.596 30.1214 195.322 31.1625 194.776 32.0426C194.253 32.9227 193.564 33.6525 192.709 34.232C191.877 34.8116 190.927 35.2409 189.858 35.52C188.813 35.8205 187.779 35.9708 186.757 35.9708Z" fill="white"/>
<path d="M221.898 31.9363C220.751 33.1363 219.342 34.1087 217.67 34.8535C216.022 35.5983 214.099 35.9707 211.902 35.9707C210.015 35.9707 208.272 35.6707 206.672 35.0707C205.071 34.4707 203.686 33.6535 202.516 32.619C201.346 31.5639 200.426 30.3329 199.757 28.926C199.089 27.4984 198.754 25.9777 198.754 24.3639C198.754 22.7502 199.089 21.2398 199.757 19.8329C200.426 18.4054 201.346 17.1743 202.516 16.1399C203.686 15.0847 205.071 14.2571 206.672 13.6571C208.272 13.0571 210.015 12.7571 211.902 12.7571C213.885 12.7571 215.64 13.0778 217.169 13.7192C218.697 14.3399 220.035 15.2295 221.181 16.3881L219.533 17.7537C217.575 15.6847 215.031 14.6502 211.902 14.6502C210.421 14.6502 209.024 14.8882 207.711 15.364C206.397 15.8399 205.251 16.5019 204.271 17.3502C203.292 18.1985 202.516 19.2226 201.943 20.4226C201.369 21.6019 201.083 22.9157 201.083 24.3639C201.083 25.8122 201.369 27.1363 201.943 28.3363C202.516 29.5156 203.292 30.5398 204.271 31.4087C205.251 32.257 206.397 32.919 207.711 33.3949C209.024 33.8501 210.421 34.0777 211.902 34.0777C213.693 34.0777 215.27 33.7673 216.631 33.1466C217.993 32.5259 219.199 31.6673 220.25 30.5708L221.898 31.9363Z" fill="white"/>
<path d="M234.924 13.2537H237.575L247.499 35.4742H244.991L242.197 29.0501H230.303L227.508 35.4742H225L234.924 13.2537ZM241.373 27.1881L236.321 15.6744H236.178L231.127 27.1881H241.373ZM235.354 11.3916L237.217 7.5434H239.832L237.432 11.3916H235.354Z" fill="white"/>
<path d="M251.953 13.2537H260.443C261.518 13.2537 262.521 13.4192 263.453 13.7502C264.408 14.0606 265.232 14.5054 265.925 15.0847C266.641 15.6433 267.203 16.3261 267.609 17.133C268.015 17.9192 268.218 18.7881 268.218 19.7398C268.218 20.526 268.05 21.2709 267.716 21.9743C267.406 22.6571 266.964 23.2674 266.39 23.8053C265.841 24.3433 265.184 24.8088 264.42 25.2019C263.656 25.5743 262.832 25.8432 261.948 26.0088L261.876 26.1019L269.185 35.3501V35.4742H266.57L259.333 26.226H254.246V35.4742H251.953V13.2537ZM260.121 24.3639C260.885 24.3639 261.614 24.2501 262.306 24.0226C262.999 23.795 263.608 23.4846 264.133 23.0915C264.683 22.6777 265.113 22.1915 265.423 21.6329C265.734 21.0536 265.889 20.4226 265.889 19.7398C265.889 19.0985 265.746 18.4985 265.459 17.9399C265.172 17.3606 264.778 16.8743 264.277 16.4812C263.799 16.0675 263.226 15.7468 262.557 15.5192C261.888 15.2709 261.16 15.1468 260.372 15.1468H254.246V24.3639H260.121Z" fill="white"/>
<path d="M273.603 13.2537H275.896V35.4742H273.603V13.2537Z" fill="white"/>
<path d="M288.105 35.4742V15.1468H280.832V13.2537H297.67V15.1468H290.398V35.4742H288.105Z" fill="white"/>
<path d="M307.882 13.2537H310.534L320.457 35.4742H317.949L315.155 29.0501H303.261L300.467 35.4742H297.959L307.882 13.2537ZM314.331 27.1881L309.28 15.6744H309.136L304.085 27.1881H314.331Z" fill="white"/>
<path d="M331.825 35.9707C330.894 35.9707 329.975 35.8363 329.067 35.5673C328.159 35.319 327.311 34.9466 326.523 34.4501C325.735 33.9328 325.031 33.3018 324.41 32.557C323.812 31.8122 323.371 30.9535 323.084 29.9811L325.234 29.2053C325.449 29.9087 325.759 30.5604 326.165 31.1604C326.595 31.7604 327.097 32.2777 327.67 32.7121C328.243 33.1466 328.888 33.488 329.604 33.7363C330.321 33.9639 331.085 34.0777 331.897 34.0777C332.685 34.0777 333.438 33.9845 334.154 33.7983C334.871 33.5914 335.492 33.3018 336.017 32.9294C336.566 32.5363 336.996 32.0708 337.307 31.5328C337.617 30.9742 337.773 30.3535 337.773 29.6708C337.773 28.4915 337.271 27.5398 336.268 26.8156C335.265 26.0708 333.808 25.4088 331.897 24.8295L330.285 24.3329C329.521 24.1053 328.768 23.8364 328.028 23.526C327.288 23.195 326.619 22.8019 326.022 22.3467C325.449 21.8915 324.983 21.3536 324.625 20.7329C324.266 20.0916 324.087 19.3467 324.087 18.4985C324.087 17.733 324.266 16.9985 324.625 16.295C325.007 15.5916 325.532 14.9813 326.201 14.464C326.87 13.9468 327.67 13.533 328.601 13.2227C329.533 12.9123 330.548 12.7571 331.646 12.7571C332.817 12.7571 333.844 12.9123 334.727 13.2227C335.611 13.5123 336.363 13.8847 336.984 14.3399C337.629 14.7744 338.131 15.2502 338.489 15.7675C338.871 16.2847 339.146 16.7606 339.313 17.195L337.164 17.9709C337.044 17.5985 336.841 17.2261 336.554 16.8537C336.292 16.4606 335.934 16.0985 335.48 15.7675C335.026 15.4364 334.489 15.1675 333.868 14.9606C333.247 14.7537 332.518 14.6502 331.682 14.6502C330.966 14.6502 330.285 14.7433 329.64 14.9295C329.019 15.1157 328.458 15.3847 327.956 15.7364C327.479 16.0675 327.096 16.4709 326.81 16.9468C326.547 17.4226 326.416 17.9399 326.416 18.4985C326.416 19.0364 326.535 19.5123 326.774 19.926C327.037 20.3191 327.395 20.6812 327.849 21.0122C328.303 21.3226 328.84 21.6122 329.461 21.8812C330.082 22.1295 330.763 22.3674 331.503 22.595L333.151 23.1226C334.106 23.4122 335.002 23.7433 335.838 24.1157C336.698 24.4881 337.438 24.9329 338.059 25.4501C338.68 25.9467 339.17 26.5363 339.528 27.2191C339.91 27.9018 340.101 28.688 340.101 29.5777C340.101 30.6949 339.85 31.657 339.349 32.4639C338.847 33.2708 338.202 33.9328 337.414 34.4501C336.626 34.9673 335.73 35.3501 334.727 35.5983C333.748 35.8466 332.781 35.9707 331.825 35.9707Z" fill="white"/>
</svg>
